/* XPM */
static char *ftxtx_xpm[] = {
"64 64 3 1",
"0	c #FFFF00",
"1	c #000000",
"2	c #FFFFFF",
"0000000000000010000000000000000000000000000000000001000000000000",
"0000111111111110000000111111111111111111111100000001111111100000",
"0000100000000000000000111111111111111111111100000000000000100000",
"0000100000000000000000111111111111111111111100000000000000100000",
"0000100000000000000000111000000000000000000000000000000000100000",
"0000100000000000000000111000000000000000000000000000000000100000",
"0000100000000000000000111000000000000000000000000000000000100000",
"0000100000000000000000111000000000000000000000000000000000100000",
"0000100000000000000000111000000000000000000000000000000000100000",
"0000100000000000000000111111111111111111111100000000000000100000",
"0000100000000000000000111111111111111111111100000000000000100000",
"0000100000000000000000111111111111111111111100000000000000100000",
"0000100000000000000000111000000000000000000000000000000000100000",
"0000100000000000000000111000000000000000000000000000000000100000",
"0000100000000000000000111000000000000000000000000000000000100000",
"0000100000000000000000111000000000000000000000000000000000100000",
"0000100000000000000000111000000000000000000000000000000000100000",
"0000100000000000000000111000000000000000000000000000000000100000",
"0000100000000000000000111000000000000000000000000000000000100000",
"0000100000000000000000111000000000000000000000000000000000100000",
"1111100000000000000000111000000000000000000000000000000000111111",
"0000000000000000000000000000000000000000000000000000000000000000",
"0000000000000000000000000000000000000000000000000000000000000000",
"0000000000000000000000000000000000000000000000000000000000000000",
"0000000000000000000000000000000000000000000000000000000000000000",
"0000011111111111111100011110000000001111000111111111111111000000",
"0000011111111111111100001111000000011110000111111111111111000000",
"0000011111111111111100000111100000111100000111111111111111000000",
"0000000000011100000000000011110001111000000000000111000000000000",
"0000000000011100000000000001111011110000000000000111000000000000",
"0000000000011100000000000000111111100000000000000111000000000000",
"0000000000011100000000000000011111000000000000000111000000000000",
"0000000000011100000000000000001110000000000000000111000000000000",
"0000000000011100000000000000011111000000000000000111000000000000",
"0000000000011100000000000000111111100000000000000111000000000000",
"0000000000011100000000000001111011110000000000000111000000000000",
"0000000000011100000000000011110001111000000000000111000000000000",
"0000000000011100000000000111100000111100000000000111000000000000",
"0000000000011100000000001111000000011110000000000111000000000000",
"0000000000011100000000011110000000001111000000000111000000000000",
"0000000000000000000000000000000000000000000000000000000000000000",
"0000000000000000000000000000000000000000000000000000000000000000",
"0000000000000000000000000000000000000000000000000000000000000000",
"0000000000000000000000000000000000000000000000000000000000000000",
"1111100000000000000000111100000000000000111100000000000000111111",
"0000100000000000000000011110000000000001111000000000000000100000",
"0000100000000000000000001111000000000011110000000000000000100000",
"0000100000000000000000000111100000000111100000000000000000100000",
"0000100000000000000000000011110000001111000000000000000000100000",
"0000100000000000000000000001111000011110000000000000000000100000",
"0000100000000000000000000000111100111100000000000000000000100000",
"0000100000000000000000000000011111111000000000000000000000100000",
"0000100000000000000000000000001111110000000000000000000000100000",
"0000100000000000000000000000000111100000000000000000000000100000",
"0000100000000000000000000000001111110000000000000000000000100000",
"0000100000000000000000000000011111111000000000000000000000100000",
"0000100000000000000000000000111100111100000000000000000000100000",
"0000100000000000000000000001111000011110000000000000000000100000",
"0000100000000000000000000011110000001111000000000000000000100000",
"0000100000000000000000000111100000000111100000000000000000100000",
"0000100000000000000000001111000000000011110000000000000000100000",
"0000100000000000000000011110000000000001111000000000000000100000",
"0000111111111110000000111100000000000000111100000001111111100000",
"0000000000000010000000000000000000000000000000000001000000000000"
};
